<svg version="1.0" xmlns="http://www.w3.org/2000/svg"
 width="20" height="20" viewBox="0 0 512.000000 512.000000"
 preserveAspectRatio="xMidYMid meet">

<g transform="translate(0.000000,512.000000) scale(0.100000,-0.100000)"
fill="#000000" stroke="none">
<path d="M3519 4420 c-268 -26 -477 -108 -554 -218 l-30 -44 -3 -516 -3 -515
26 -53 c46 -94 168 -162 373 -210 83 -20 146 -26 282 -31 305 -10 483 24 703
135 12 6 7 -151 -6 -175 -38 -68 -194 -133 -394 -163 -80 -13 -263 -17 -392
-11 -73 4 -85 3 -97 -14 -19 -25 -18 -38 5 -66 17 -22 26 -23 188 -27 302 -8
479 27 696 136 12 6 7 -151 -6 -175 -38 -68 -194 -133 -394 -163 -80 -13 -263
-17 -392 -11 -73 4 -85 3 -97 -14 -19 -25 -18 -38 5 -66 17 -22 26 -23 188
-27 302 -8 479 27 696 136 12 6 7 -151 -6 -175 -38 -68 -194 -133 -394 -163
-80 -13 -263 -17 -392 -11 -73 4 -85 3 -97 -14 -19 -25 -18 -38 5 -66 17 -22
26 -23 188 -27 302 -8 479 27 696 136 12 6 7 -151 -6 -175 -38 -68 -194 -133
-394 -163 -80 -13 -263 -17 -392 -11 -73 4 -85 3 -97 -14 -19 -25 -18 -38 5
-66 19 -24 20 -24 248 -24 203 0 240 3 333 23 205 46 341 117 391 205 l24 42
0 1167 0 1166 -30 44 c-63 90 -231 168 -435 202 -119 19 -328 27 -441 16z
m450 -125 c165 -33 291 -88 334 -147 48 -65 -28 -140 -200 -196 -228 -75 -618
-75 -846 0 -283 93 -283 218 -2 307 78 25 128 35 270 55 62 9 373 -4 444 -19z
m-848 -403 c134 -66 334 -102 559 -102 265 0 430 36 633 138 12 6 7 -151 -6
-175 -93 -165 -702 -236 -1051 -121 -106 35 -179 79 -203 121 -13 24 -18 181
-5 175 4 -2 37 -18 73 -36z m0 -320 c134 -66 334 -102 559 -102 265 0 430 36
633 138 12 6 7 -151 -6 -175 -93 -165 -702 -236 -1051 -121 -106 35 -179 79
-203 121 -13 24 -18 181 -5 175 4 -2 37 -18 73 -36z m0 -320 c134 -66 334
-102 559 -102 265 0 430 36 633 138 12 6 7 -151 -6 -175 -93 -165 -702 -236
-1051 -121 -106 35 -179 79 -203 121 -13 24 -18 181 -5 175 4 -2 37 -18 73
-36z"/>
<path d="M1279 3780 c-268 -26 -477 -108 -554 -218 l-30 -44 -3 -996 -2 -996
26 -53 c46 -95 176 -166 394 -215 93 -20 130 -23 333 -23 228 0 229 0 248 24
23 28 24 41 5 66 -12 17 -24 18 -97 14 -129 -6 -312 -2 -392 11 -200 30 -356
95 -394 163 -13 24 -18 181 -5 175 216 -109 393 -144 695 -136 162 4 171 5
188 27 23 28 24 41 5 66 -12 17 -24 18 -97 14 -129 -6 -312 -2 -392 11 -200
30 -356 95 -394 163 -13 24 -18 181 -5 175 216 -109 393 -144 695 -136 162 4
171 5 188 27 23 28 24 41 5 66 -12 17 -24 18 -97 14 -129 -6 -312 -2 -392 11
-200 30 -356 95 -394 163 -13 24 -18 181 -5 175 216 -109 393 -144 695 -136
162 4 171 5 188 27 23 28 24 41 5 66 -12 17 -24 18 -97 14 -129 -6 -312 -2
-392 11 -200 30 -356 95 -394 163 -13 24 -18 181 -5 175 216 -109 393 -144
695 -136 162 4 171 5 188 27 23 28 24 41 5 66 -12 17 -24 18 -97 14 -129 -6
-312 -2 -392 11 -200 30 -356 95 -394 163 -13 24 -18 181 -5 175 219 -111 397
-145 702 -135 136 5 199 11 282 31 192 45 320 114 369 200 23 39 24 49 24 248
l0 206 -30 44 c-63 90 -231 168 -435 202 -119 19 -328 27 -441 16z m450 -125
c223 -45 365 -127 347 -200 -28 -112 -305 -198 -636 -198 -349 0 -637 97 -640
215 -1 74 209 169 440 197 102 13 398 5 489 -14z m-848 -403 c134 -66 334
-102 559 -102 265 0 430 36 633 138 12 6 7 -151 -6 -175 -36 -65 -174 -125
-363 -159 -135 -24 -393 -24 -528 0 -189 34 -327 94 -363 159 -13 24 -18 181
-5 175 4 -2 37 -18 73 -36z"/>
<path d="M2325 2919 c-247 -34 -436 -123 -490 -233 l-25 -52 2 -836 3 -836 30
-44 c96 -137 368 -221 715 -221 347 0 619 84 715 221 l30 44 0 846 0 847 -27
45 c-54 92 -191 161 -408 206 -90 19 -441 27 -545 13z m504 -115 c201 -34 349
-106 367 -179 18 -74 -121 -154 -352 -202 -114 -23 -447 -24 -565 0 -216 43
-359 120 -359 193 0 64 153 147 342 184 161 32 397 33 567 4z m-734 -443 c144
-47 266 -64 465 -64 121 0 206 5 275 17 116 20 261 66 323 102 l42 25 0 -85
c0 -76 -2 -87 -26 -115 -84 -100 -390 -171 -684 -158 -259 11 -482 78 -549
163 -18 22 -21 41 -21 111 l0 84 43 -25 c23 -14 83 -38 132 -55z m0 -320 c144
-47 266 -64 465 -64 121 0 206 5 275 17 116 20 261 66 323 102 l42 25 0 -85
c0 -76 -2 -87 -26 -115 -84 -100 -390 -171 -684 -158 -259 11 -482 78 -549
163 -18 22 -21 41 -21 111 l0 84 43 -25 c23 -14 83 -38 132 -55z m0 -320 c144
-47 266 -64 465 -64 121 0 206 5 275 17 116 20 261 66 323 102 l42 25 0 -85
c0 -76 -2 -87 -26 -115 -84 -100 -390 -171 -684 -158 -259 11 -482 78 -549
163 -18 22 -21 41 -21 111 l0 84 43 -25 c23 -14 83 -38 132 -55z m0 -320 c144
-47 266 -64 465 -64 121 0 206 5 275 17 116 20 261 66 323 102 l42 25 0 -85
c0 -76 -2 -87 -26 -115 -84 -100 -390 -171 -684 -158 -259 11 -482 78 -549
163 -18 22 -21 41 -21 111 l0 84 43 -25 c23 -14 83 -38 132 -55z m0 -320 c144
-47 266 -64 465 -64 121 0 206 5 275 17 116 20 261 66 323 102 l42 25 0 -85
c0 -76 -2 -87 -26 -115 -34 -40 -147 -94 -254 -120 -247 -61 -580 -51 -797 23
-91 31 -124 48 -167 89 -36 34 -36 34 -36 121 l0 87 43 -25 c23 -14 83 -38
132 -55z"/>
</g>
</svg>
