<svg version="1.0" xmlns="http://www.w3.org/2000/svg"
 width="20" height="20" viewBox="0 0 512.000000 512.000000"
 preserveAspectRatio="xMidYMid meet">

<g transform="translate(0.000000,512.000000) scale(0.100000,-0.100000)"
fill="#000000" stroke="none">
<path d="M2073 5109 c-111 -10 -235 -34 -373 -70 -931 -246 -1568 -1163 -1499
-2158 22 -318 122 -642 281 -912 134 -227 349 -468 553 -618 187 -138 207
-155 290 -237 273 -272 447 -617 495 -984 6 -47 13 -95 16 -108 l4 -22 940 0
940 0 2 548 3 547 200 5 c194 5 202 6 257 33 72 35 130 93 165 165 l28 57 3
362 3 363 234 0 233 0 31 26 c35 29 53 82 42 122 -5 15 -65 113 -134 217 -257
391 -348 593 -452 1010 -80 320 -157 504 -304 726 -213 321 -493 565 -842 733
-343 166 -728 233 -1116 195z m408 -160 c662 -67 1240 -467 1536 -1064 81
-162 120 -277 168 -490 83 -367 242 -713 487 -1065 l59 -85 -213 -5 c-190 -4
-216 -7 -242 -25 -54 -36 -56 -52 -56 -445 0 -380 -2 -403 -48 -453 -42 -47
-67 -52 -288 -57 l-211 -5 -36 -28 c-21 -16 -46 -46 -57 -67 -19 -38 -20 -60
-20 -520 l0 -480 -790 0 -790 0 -4 23 c-100 539 -340 920 -791 1256 -340 253
-557 529 -698 887 -192 488 -170 1067 58 1543 71 147 111 212 211 346 97 131
273 303 405 397 361 258 858 384 1320 337z"/>
<path d="M2136 4393 c-3 -10 -19 -85 -36 -167 -16 -82 -31 -150 -33 -151 -1
-1 -33 -13 -72 -25 -38 -13 -104 -40 -146 -61 l-76 -38 -140 94 -140 93 -132
-132 c-72 -72 -131 -136 -131 -141 0 -6 40 -70 89 -144 l90 -134 -38 -76 c-21
-42 -49 -108 -62 -148 l-23 -72 -55 -12 c-31 -6 -103 -21 -161 -33 l-105 -22
-3 -191 c-2 -176 -1 -192 15 -197 10 -2 68 -14 128 -26 192 -37 178 -30 204
-110 12 -39 40 -105 61 -147 l38 -76 -85 -129 c-46 -72 -87 -137 -90 -145 -4
-10 37 -58 123 -144 71 -71 132 -129 137 -129 4 0 60 35 125 78 169 114 148
108 239 63 43 -21 108 -48 145 -60 l66 -22 16 -72 c9 -40 24 -112 34 -162 l18
-90 191 -3 c176 -2 192 -1 197 15 3 10 17 81 32 158 15 77 32 145 38 151 6 6
38 18 71 28 33 10 95 36 139 57 l78 40 140 -92 140 -92 136 136 136 136 -93
139 -92 139 33 64 c17 35 46 102 63 149 l30 84 160 33 c88 17 161 32 163 33 1
0 1 86 0 192 l-3 192 -105 22 c-58 12 -130 27 -161 34 l-56 11 -22 67 c-12 37
-40 104 -62 149 l-39 83 90 135 c49 74 90 138 90 142 0 5 -60 67 -132 140
l-133 131 -141 -93 -142 -93 -76 39 c-41 20 -107 48 -146 60 -40 13 -72 30
-74 38 -6 18 -66 309 -66 316 0 3 -85 5 -189 5 -172 0 -190 -2 -195 -17z m317
-868 c266 -69 431 -332 376 -597 -35 -168 -171 -322 -335 -378 -330 -114 -674
134 -674 485 1 228 156 428 380 491 63 17 185 17 253 -1z"/>
</g>
</svg>
