<svg version="1.0" xmlns="http://www.w3.org/2000/svg"
 width="20" height="20" viewBox="0 0 512.000000 512.000000"
 preserveAspectRatio="xMidYMid meet">

<g transform="translate(0.000000,512.000000) scale(0.100000,-0.100000)"
fill="#000000" stroke="none">
<path d="M4075 4731 c-119 -34 -158 -63 -385 -291 -187 -186 -220 -224 -248
-282 -41 -87 -54 -144 -55 -243 0 -89 21 -175 59 -245 l25 -44 -234 -234 -234
-234 -49 25 c-168 85 -363 77 -527 -23 -36 -21 -133 -111 -256 -235 -208 -210
-238 -250 -275 -374 -25 -86 -21 -217 9 -307 14 -41 33 -86 42 -100 l16 -26
-234 -234 -235 -235 -44 25 c-100 55 -271 76 -380 46 -124 -33 -164 -63 -391
-290 -169 -168 -222 -228 -247 -276 -111 -214 -73 -464 94 -629 133 -132 317
-183 503 -140 125 30 169 62 397 289 221 222 252 264 288 385 33 113 15 292
-40 390 l-25 45 235 235 234 234 26 -16 c58 -38 172 -67 263 -67 101 0 168 17
258 63 87 45 467 426 513 513 81 156 83 343 6 496 l-26 51 234 234 234 234 44
-25 c100 -55 252 -74 370 -46 126 29 179 68 405 294 230 230 260 272 291 402
21 89 14 216 -15 299 -60 170 -217 308 -389 344 -76 16 -187 12 -257 -8z m276
-223 c69 -32 125 -88 158 -158 21 -44 26 -70 26 -130 0 -126 -28 -169 -247
-386 -197 -195 -240 -224 -335 -232 -58 -5 -130 4 -153 18 -12 8 -11 13 11 37
69 75 79 134 30 184 -48 47 -122 37 -180 -25 -14 -14 -28 -26 -32 -26 -13 0
-29 72 -29 132 0 116 23 152 224 356 180 183 229 222 309 248 60 20 153 12
218 -18z m-1555 -1489 c24 -6 44 -14 44 -16 0 -3 -17 -25 -39 -49 -43 -49 -51
-74 -39 -121 11 -44 51 -73 101 -73 33 0 50 8 88 40 l48 40 13 -22 c8 -14 13
-57 13 -108 0 -128 -18 -156 -244 -381 -202 -201 -239 -227 -342 -236 -58 -6
-159 12 -159 27 0 5 5 12 11 15 30 19 69 90 69 127 0 58 -42 98 -103 98 -37 0
-51 -6 -90 -40 -25 -22 -47 -40 -50 -40 -13 0 -29 108 -24 161 9 99 36 139
221 327 94 96 191 188 215 204 78 55 171 71 267 47z m-1503 -1510 c20 -5 37
-12 37 -15 0 -3 -18 -26 -40 -51 -34 -39 -40 -53 -40 -90 0 -61 40 -103 98
-103 37 0 108 39 127 69 12 21 22 11 35 -34 17 -61 8 -158 -20 -220 -17 -37
-73 -100 -209 -237 -153 -154 -197 -192 -246 -215 -120 -56 -264 -31 -359 62
-62 62 -91 135 -91 230 1 121 18 149 219 353 175 178 228 223 294 247 45 16
143 19 195 4z"/>
</g>
</svg>
