<svg version="1.0" xmlns="http://www.w3.org/2000/svg"
 width="20" height="20" viewBox="0 0 512.000000 512.000000"
 preserveAspectRatio="xMidYMid meet">

<g transform="translate(0.000000,512.000000) scale(0.100000,-0.100000)"
fill="#000000" stroke="none">
<path d="M2345 5101 c-49 -23 -89 -64 -109 -113 -14 -33 -16 -191 -16 -1405
l0 -1368 -367 367 c-387 386 -413 407 -499 408 -69 0 -131 -40 -253 -165 -61
-63 -118 -130 -126 -149 -20 -48 -18 -123 4 -171 27 -57 1452 -1478 1503
-1500 48 -19 108 -19 156 0 47 20 1474 1441 1503 1499 29 55 27 135 -4 189
-35 58 -245 263 -290 282 -49 20 -113 19 -162 -4 -26 -13 -165 -144 -405 -385
-201 -201 -368 -366 -372 -366 -4 0 -9 623 -10 1383 l-3 1384 -29 41 c-18 26
-47 51 -79 67 -49 24 -58 25 -226 25 -150 0 -182 -3 -216 -19z"/>
<path d="M619 657 c-24 -13 -57 -43 -74 -66 l-30 -43 0 -206 0 -207 29 -42
c18 -27 46 -51 79 -68 l51 -25 1886 0 1886 0 51 25 c33 17 61 41 79 68 29 42
29 42 32 227 2 115 -1 199 -8 222 -14 50 -56 97 -105 119 -38 18 -118 19
-1936 19 l-1896 0 -44 -23z"/>
</g>
</svg>
